<?xml version="1.0" encoding="UTF-8"?>
<svg version="1.1" xmlns="http://www.w3.org/2000/svg" width="512" height="512">
<path d="M0 0 C168.96 0 337.92 0 512 0 C512 168.96 512 337.92 512 512 C343.04 512 174.08 512 0 512 C0 343.04 0 174.08 0 0 Z " fill="#1FA5C0" transform="translate(0,0)"/>
<path d="M0 0 C-0.61746094 0.59425781 -1.23492187 1.18851563 -1.87109375 1.80078125 C-8.0761096 7.87357454 -13.61709124 14.18403733 -19 21 C-19.89620817 22.10622061 -20.79338124 23.21166003 -21.69140625 24.31640625 C-38.46787166 45.09647958 -50.25782009 68.08947005 -57 94 C-57.41572266 95.57974609 -57.41572266 95.57974609 -57.83984375 97.19140625 C-63.79569587 120.39256151 -64.47230053 142.46718056 -60 166 C-20.78456536 150.28800436 5.94002496 123.98442674 23.02636719 85.27783203 C28.17174335 73.24012903 30.66970114 60.82315292 33 48 C54.9913383 62.08616787 69.57203312 85.7011864 78 110 C78.37640625 111.0621875 78.7528125 112.124375 79.140625 113.21875 C88.32337912 140.90406839 87.7355177 170.59257174 74.55859375 196.875 C61.92001863 218.91502201 42.38614994 232.34625247 18.75 240.375 C18.05455078 240.61355713 17.35910156 240.85211426 16.64257812 241.09790039 C5.00836731 244.84811723 -6.75011921 245.44255822 -18.875 245.4375 C-20.02785995 245.43860275 -20.02785995 245.43860275 -21.20401001 245.43972778 C-51.43985448 245.36400772 -77.3331464 235.67642637 -99.5625 214.875 C-116.99123512 196.95270778 -123.6105912 172.15091846 -123.2734375 147.7421875 C-123.00836746 139.79271062 -121.40056177 132.55434967 -119 125 C-118.7745752 124.27312988 -118.54915039 123.54625977 -118.31689453 122.79736328 C-112.07298588 103.15851144 -102.09615822 84.64329012 -90 68 C-89.41750488 67.18644043 -89.41750488 67.18644043 -88.82324219 66.35644531 C-82.42740977 57.48309178 -75.15921617 49.51092468 -67.57763672 41.640625 C-66.24023837 40.24983006 -64.91731617 38.84513725 -63.59765625 37.4375 C-52.66240211 26.03388302 -16.88446777 -5.62815592 0 0 Z " fill="#FCFEFE" transform="translate(275,134)"/>
<path d="M0 0 C0.33 0 0.66 0 1 0 C0.85966889 1.97956441 0.7125877 3.95865141 0.5625 5.9375 C0.48128906 7.03964844 0.40007812 8.14179688 0.31640625 9.27734375 C0 12 0 12 -1 13 C-1.20699563 14.49496842 -1.36679259 15.9966592 -1.5 17.5 C-1.88888889 21.88888889 -1.88888889 21.88888889 -3 23 C-3.56203856 30.96003453 -2.82331901 38.76021316 -1.6237793 46.61743164 C-1.13035295 50.00438135 -0.81486704 52.74295626 -2 56 C-7.37797493 37.24111126 -6.12519374 18.37558122 0 0 Z " fill="#CAF0F6" transform="translate(157,256)"/>
<path d="M0 0 C0.66 1.32 1.32 2.64 2 4 C0.02 4.33 -1.96 4.66 -4 5 C-4 5.66 -4 6.32 -4 7 C-9.04667328 11.79433961 -15.44031723 15.10063399 -21.4609375 18.484375 C-24.05628652 19.89313127 -24.05628652 19.89313127 -26 22 C-29.125 21.625 -29.125 21.625 -32 21 C-29.22722655 17.58654784 -25.38525567 16.1311495 -21.5 14.3125 C-13.63913691 10.52011896 -6.22654072 6.22654072 0 0 Z " fill="#2C9CB0" transform="translate(332,352)"/>
<path d="M0 0 C1.50626953 0.77923828 1.50626953 0.77923828 3.04296875 1.57421875 C17.38519112 8.92359285 31.20674705 13.82716916 47 17 C47 17.33 47 17.66 47 18 C33.59555151 18.94066305 22.10698138 13.97810136 10.55859375 7.8046875 C7.11161038 5.91901256 7.11161038 5.91901256 3.59765625 5.0078125 C2.74042969 4.67523438 1.88320312 4.34265625 1 4 C0.125 1.875 0.125 1.875 0 0 Z " fill="#319AAE" transform="translate(190,361)"/>
<path d="M0 0 C0.66 0.33 1.32 0.66 2 1 C0.23000902 2.93827536 -1.54095761 4.87564344 -3.3125 6.8125 C-3.81201172 7.35970703 -4.31152344 7.90691406 -4.82617188 8.47070312 C-6.21222531 9.98526483 -7.60586122 11.49287747 -9 13 C-9.57105469 13.62261719 -10.14210937 14.24523437 -10.73046875 14.88671875 C-12 16 -12 16 -14 16 C-14.268125 16.598125 -14.53625 17.19625 -14.8125 17.8125 C-15.98493467 19.97224808 -17.19369282 21.35790256 -19 23 C-19.66 22.67 -20.32 22.34 -21 22 C-14.18743405 14.46214186 -7.25703551 7.11535803 0 0 Z " fill="#DCF9FC" transform="translate(218,165)"/>
<path d="M0 0 C0.33 0 0.66 0 1 0 C0.38057979 5.6120964 -1.00685461 10.6592325 -2.8125 16 C-3.06064453 16.76828125 -3.30878906 17.5365625 -3.56445312 18.328125 C-5.21793741 23.27595584 -7.27293311 27.55150911 -10 32 C-10.33 30.68 -10.66 29.36 -11 28 C-10.34 28 -9.68 28 -9 28 C-8.34 24.7 -7.68 21.4 -7 18 C-6.34 18 -5.68 18 -5 18 C-4.83564453 16.80503906 -4.83564453 16.80503906 -4.66796875 15.5859375 C-3.81008432 9.8527586 -3.03978343 4.97419107 0 0 Z " fill="#3AA4BA" transform="translate(304,197)"/>
<path d="M0 0 C3.49803111 0.64778354 5.97945576 2.17177585 9 4 C9.66 4 10.32 4 11 4 C11 4.66 11 5.32 11 6 C11.66 6 12.32 6 13 6 C12.67 7.32 12.34 8.64 12 10 C8.7 7.36 5.4 4.72 2 2 C1.01 6.62 0.02 11.24 -1 16 C-1.33 16 -1.66 16 -2 16 C-2 11.38 -2 6.76 -2 2 C-1.34 2 -0.68 2 0 2 C0 1.34 0 0.68 0 0 Z " fill="#40AAC0" transform="translate(307,181)"/>
<path d="M0 0 C9.9 0 19.8 0 30 0 C27 3 27 3 24.1015625 3.109375 C22.95429688 2.99078125 21.80703125 2.8721875 20.625 2.75 C19.3875 2.63269531 18.15 2.51539063 16.875 2.39453125 C15.59625 2.26433594 14.3175 2.13414062 13 2 C10.54216375 1.80609284 8.083847 1.61813898 5.625 1.4375 C3.74996929 1.29206206 1.87495711 1.14638369 0 1 C0 0.67 0 0.34 0 0 Z " fill="#3BA1B3" transform="translate(245,379)"/>
<path d="M0 0 C2.31 0 4.62 0 7 0 C7.93065133 2.60582371 8.14917407 3.64198224 7.0625 6.25 C6.711875 6.8275 6.36125 7.405 6 8 C4.35 8 2.7 8 1 8 C1.99 6.68 2.98 5.36 4 4 C1.69 4.33 -0.62 4.66 -3 5 C-3 4.34 -3 3.68 -3 3 C-2.01 3 -1.02 3 0 3 C0 2.01 0 1.02 0 0 Z " fill="#36ACC1" transform="translate(270,130)"/>
<path d="M0 0 C0.33 0.66 0.66 1.32 1 2 C-0.47169811 5.73584906 -0.47169811 5.73584906 -3 7 C-3.6496875 8.11375 -3.6496875 8.11375 -4.3125 9.25 C-6.19112304 12.31145976 -8.39889855 14.53949863 -11 17 C-11.66 16.67 -12.32 16.34 -13 16 C-8.71 10.72 -4.42 5.44 0 0 Z " fill="#41ABC0" transform="translate(260,149)"/>
<path d="M0 0 C1.68693766 5.2482505 -0.12984765 8.50944671 -2.5625 13.25 C-3.01753906 14.14203125 -3.47257812 15.0340625 -3.94140625 15.953125 C-4.29074219 16.62859375 -4.64007813 17.3040625 -5 18 C-5.99 18 -6.98 18 -8 18 C-6.65150163 13.64029169 -4.95092154 9.68658562 -2.875 5.625 C-2.33617187 4.56539063 -1.79734375 3.50578125 -1.2421875 2.4140625 C-0.83226562 1.61742187 -0.42234375 0.82078125 0 0 Z " fill="#319FB4" transform="translate(353,321)"/>
<path d="M0 0 C5 5 10 10 15 15 C14.34 15.66 13.68 16.32 13 17 C13 16.34 13 15.68 13 15 C12.0409375 14.566875 12.0409375 14.566875 11.0625 14.125 C9 13 9 13 8 11 C7.01 10.67 6.02 10.34 5 10 C5 9.01 5 8.02 5 7 C4.34 7 3.68 7 3 7 C0 2.61538462 0 2.61538462 0 0 Z " fill="#319BAE" transform="translate(168,340)"/>
<path d="M0 0 C-1.98 1.65 -3.96 3.3 -6 5 C-6 4.34 -6 3.68 -6 3 C-6.9075 3.350625 -7.815 3.70125 -8.75 4.0625 C-12.00591313 5.00170571 -12.92749994 4.95514676 -16 4 C-13.90049414 3.13444052 -11.7952093 2.28288723 -9.6875 1.4375 C-8.51574219 0.96183594 -7.34398437 0.48617187 -6.13671875 -0.00390625 C-3 -1 -3 -1 0 0 Z " fill="#C8F3F9" transform="translate(275,134)"/>
<path d="M0 0 C0.99 0.33 1.98 0.66 3 1 C1.85821872 2.66944521 0.71147095 4.3354948 -0.4375 6 C-1.07558594 6.928125 -1.71367187 7.85625 -2.37109375 8.8125 C-2.90863281 9.534375 -3.44617188 10.25625 -4 11 C-4.33 11 -4.66 11 -5 11 C-5.36625971 6.48279689 -5.36625971 6.48279689 -3.625 4.1875 C-2 3 -2 3 0 3 C0 2.01 0 1.02 0 0 Z " fill="#33A5B8" transform="translate(287,237)"/>
<path d="M0 0 C6.6 0.33 13.2 0.66 20 1 C20 1.33 20 1.66 20 2 C17.22965863 2.24858198 14.46060931 2.47452879 11.6875 2.6875 C10.50897461 2.79674805 10.50897461 2.79674805 9.30664062 2.90820312 C8.54931641 2.96298828 7.79199219 3.01777344 7.01171875 3.07421875 C6.31522217 3.13182373 5.61872559 3.18942871 4.90112305 3.2487793 C3 3 3 3 0 0 Z " fill="#1D95AA" transform="translate(238,379)"/>
<path d="M0 0 C0 0.33 0 0.66 0 1 C-1.91345327 1.53251766 -3.8309295 2.05059483 -5.75 2.5625 C-6.81734375 2.85253906 -7.8846875 3.14257812 -8.984375 3.44140625 C-11.84335927 3.97098494 -13.31597383 3.98370862 -16 3 C-10.9749232 -0.3500512 -5.9145821 -0.11829164 0 0 Z " fill="#2A98AE" transform="translate(292,376)"/>
<path d="M0 0 C1.98 0 3.96 0 6 0 C2.59780735 2.74792483 -1.48464588 6 -6 6 C-6 5.34 -6 4.68 -6 4 C-5.01 4 -4.02 4 -3 4 C-3 3.34 -3 2.68 -3 2 C-2.01 2 -1.02 2 0 2 C0 1.34 0 0.68 0 0 Z " fill="#40AABF" transform="translate(255,137)"/>
<path d="M0 0 C0.99 0.33 1.98 0.66 3 1 C0.69 3.31 -1.62 5.62 -4 8 C-4.33 6.68 -4.66 5.36 -5 4 C-4.34 4 -3.68 4 -3 4 C-3 3.34 -3 2.68 -3 2 C-2.01 2 -1.02 2 0 2 C0 1.34 0 0.68 0 0 Z " fill="#2FA0B5" transform="translate(265,266)"/>
<path d="M0 0 C0.66 0.33 1.32 0.66 2 1 C1.67 2.65 1.34 4.3 1 6 C0.34 6 -0.32 6 -1 6 C-1 7.65 -1 9.3 -1 11 C-1.99 11.495 -1.99 11.495 -3 12 C-2.49202991 7.6822542 -1.80317221 3.96697886 0 0 Z " fill="#42A8BC" transform="translate(224,206)"/>
<path d="M0 0 C-1.12073862 0.83905565 -2.24674547 1.67107831 -3.375 2.5 C-4.00148437 2.9640625 -4.62796875 3.428125 -5.2734375 3.90625 C-7 5 -7 5 -9 5 C-8.8125 3.125 -8.8125 3.125 -8 1 C-4.70594381 -0.82039948 -3.63772813 -1.21257604 0 0 Z " fill="#3EAABE" transform="translate(242,148)"/>
<path d="M0 0 C0.33 0.99 0.66 1.98 1 3 C-1.3125 5.5 -1.3125 5.5 -4 8 C-4.99 8 -5.98 8 -7 8 C-4.69 5.36 -2.38 2.72 0 0 Z " fill="#359DB1" transform="translate(343,340)"/>
<path d="M0 0 C0.66 0 1.32 0 2 0 C2.33 1.32 2.66 2.64 3 4 C1.35 5.32 -0.3 6.64 -2 8 C-2 6.68 -2 5.36 -2 4 C-1.34 4 -0.68 4 0 4 C0 2.68 0 1.36 0 0 Z " fill="#32A2BA" transform="translate(270,258)"/>
<path d="M0 0 C0.33 0.99 0.66 1.98 1 3 C-0.98 4.32 -2.96 5.64 -5 7 C-5.66 6.67 -6.32 6.34 -7 6 C-4.69 4.02 -2.38 2.04 0 0 Z " fill="#D6F7FA" transform="translate(261,273)"/>
<path d="M0 0 C0.99 0.33 1.98 0.66 3 1 C3 1.99 3 2.98 3 4 C3.66 4 4.32 4 5 4 C5.33 5.98 5.66 7.96 6 10 C3.25722422 6.80009492 1.3697164 3.99500618 0 0 Z " fill="#40A8BA" transform="translate(334,207)"/>
</svg>
